<?xml version="1.0" encoding="UTF-8" standalone="no"?>
<!-- Created with Inkscape (http://www.inkscape.org/) -->

<svg
   version="1.1"
   id="svg49621"
   width="1600"
   height="1600"
   viewBox="0 0 1600 1600"
   sodipodi:docname="wings-love-art-vector-pdv.svg"
   inkscape:version="1.2 (dc2aedaf03, 2022-05-15)"
   xmlns:inkscape="http://www.inkscape.org/namespaces/inkscape"
   xmlns:sodipodi="http://sodipodi.sourceforge.net/DTD/sodipodi-0.dtd"
   xmlns="http://www.w3.org/2000/svg"
   xmlns:svg="http://www.w3.org/2000/svg">
  <defs
     id="defs49625">
    <clipPath
       clipPathUnits="userSpaceOnUse"
       id="clipPath49637">
      <path
         d="M 0,1200 H 1200 V 0 H 0 Z"
         id="path49635" />
    </clipPath>
  </defs>
  <sodipodi:namedview
     id="namedview49623"
     pagecolor="#ffffff"
     bordercolor="#000000"
     borderopacity="0.25"
     inkscape:showpageshadow="2"
     inkscape:pageopacity="0.0"
     inkscape:pagecheckerboard="0"
     inkscape:deskcolor="#d1d1d1"
     showgrid="false"
     inkscape:zoom="0.523125"
     inkscape:cx="800"
     inkscape:cy="800.95579"
     inkscape:window-width="1920"
     inkscape:window-height="1017"
     inkscape:window-x="-8"
     inkscape:window-y="-8"
     inkscape:window-maximized="1"
     inkscape:current-layer="g49629">
    <inkscape:page
       x="0"
       y="0"
       id="page49627"
       width="1600"
       height="1600" />
  </sodipodi:namedview>
  <g
     id="g49629"
     inkscape:groupmode="layer"
     inkscape:label="Page 1"
     transform="matrix(1.3333333,0,0,-1.3333333,0,1600)">
    <g
       id="g49631">
      <g
         id="g49633"
         clip-path="url(#clipPath49637)">
        <g
           id="g49639"
           transform="translate(692.4658,435.1807)">
          <path
             d="m 0,0 c -2.888,0 -5.227,2.34 -5.227,5.228 0,2.884 2.339,5.224 5.227,5.224 2.885,0 5.227,-2.34 5.227,-5.224 C 5.227,2.34 2.885,0 0,0 m -35.414,23.604 c -14.414,0 -26.098,11.684 -26.098,26.097 0,14.414 11.684,26.099 26.098,26.099 14.413,0 26.098,-11.685 26.098,-26.099 0,-14.413 -11.685,-26.097 -26.098,-26.097 m -4.709,-50.278 c -2.885,0 -5.227,2.338 -5.227,5.224 0,2.886 2.342,5.229 5.227,5.229 2.886,0 5.226,-2.343 5.226,-5.229 0,-2.886 -2.34,-5.224 -5.226,-5.224 m -49.414,0.695 c -2.502,0 -4.53,2.027 -4.53,4.529 0,2.502 2.028,4.53 4.53,4.53 2.502,0 4.53,-2.028 4.53,-4.53 0,-2.502 -2.028,-4.529 -4.53,-4.529 m -0.379,46.339 c 2.502,0 4.53,-2.03 4.53,-4.532 0,-2.503 -2.028,-4.531 -4.53,-4.531 -2.502,0 -4.528,2.028 -4.528,4.531 0,2.502 2.026,4.532 4.528,4.532 m -11.672,-99.495 c -3.943,0 -7.139,3.197 -7.139,7.142 0,3.945 3.196,7.141 7.139,7.141 3.946,0 7.144,-3.196 7.144,-7.141 0,-3.945 -3.198,-7.142 -7.144,-7.142 m -10.979,135.061 c 0,5.005 4.055,9.06 9.058,9.06 5.005,0 9.065,-4.055 9.065,-9.06 0,-5.002 -4.06,-9.061 -9.065,-9.061 -5.003,0 -9.058,4.059 -9.058,9.061 m -25.689,-87.132 c -2.5,0 -4.53,2.03 -4.53,4.532 0,2.5 2.03,4.528 4.53,4.528 2.5,0 4.53,-2.028 4.53,-4.528 0,-2.502 -2.03,-4.532 -4.53,-4.532 m -24.548,36.434 c -7.804,0 -14.134,6.327 -14.134,14.131 0,7.807 6.33,14.136 14.134,14.136 7.806,0 14.134,-6.329 14.134,-14.136 0,-7.804 -6.328,-14.131 -14.134,-14.131 m -30.75,50.698 c -2.503,0 -4.532,2.032 -4.532,4.532 0,2.503 2.029,4.528 4.532,4.528 2.502,0 4.533,-2.025 4.533,-4.528 0,-2.5 -2.031,-4.532 -4.533,-4.532 m 149.375,73.946 c -6.437,-18.237 12.041,-42.595 35.252,-19.406 -16.885,-29.331 -47.085,-21.801 -60.489,-8.736 -3.463,3.373 -6.202,7.542 -8.045,12.28 -7.325,-5.673 -14.59,-12.862 -21.643,-21.743 -6.699,7.611 -13.416,13.964 -20.09,19.194 -1.772,-3.691 -4.121,-6.978 -6.947,-9.731 -13.404,-13.065 -43.604,-20.595 -60.49,8.736 22.548,-22.524 40.631,-0.187 35.744,17.828 -48.674,13.781 -86.847,-31.052 -79.325,-88.966 9.741,-74.979 111.795,-115.137 131.109,-141.81 47.45,37.815 119.46,66.831 131.107,141.81 8.617,55.468 -30.241,99.525 -76.183,90.544 m 199.567,117.965 c 1.43,0 2.594,-1.163 2.594,-2.594 0,-1.43 -1.164,-2.594 -2.594,-2.594 -1.435,0 -2.593,1.164 -2.593,2.594 0,1.431 1.158,2.594 2.593,2.594 m 20.413,31.122 c 1.432,0 2.594,-1.161 2.594,-2.593 0,-1.432 -1.162,-2.594 -2.594,-2.594 -1.433,0 -2.594,1.162 -2.594,2.594 0,1.432 1.161,2.593 2.594,2.593 m 41.942,38.641 c 4.297,0 7.78,-3.484 7.78,-7.78 0,-4.297 -3.483,-7.78 -7.78,-7.78 -4.298,0 -7.78,3.483 -7.78,7.78 0,4.296 3.482,7.78 7.78,7.78 m 10.373,-41.234 c 0,-1.432 -1.161,-2.594 -2.593,-2.594 -1.432,0 -2.593,1.162 -2.593,2.594 0,1.432 1.161,2.593 2.593,2.593 1.432,0 2.593,-1.161 2.593,-2.593 m -108.303,-52.92 20.973,6.193 20.802,6.789 c 3.484,1.089 6.911,2.336 10.339,3.588 l 10.295,3.719 10.302,3.725 10.171,4.057 c 6.765,2.747 13.597,5.356 20.318,8.218 13.323,5.986 26.847,11.608 39.863,18.294 15.548,7.359 30.677,15.542 45.585,24.149 -5.022,1.104 -9.835,2.64 -14.603,4.371 -6.215,2.309 -12.259,5.045 -18.062,8.246 -11.593,6.361 -22.271,14.66 -30.596,25.021 -4.552,5.625 -8.274,11.909 -11.062,18.564 -4.216,9.385 -6.661,20.218 -6.469,32.656 -11.643,-35.906 -36.185,-72.793 -64.288,-105.831 -23.685,-27.846 -50.429,-52.431 -75.402,-70.15 3.589,0.846 7.175,1.717 10.736,2.69 7.024,1.91 14.107,3.639 21.098,5.701 M 81.678,-21.45 c -1.646,0 -2.983,1.337 -2.983,2.984 0,1.648 1.337,2.981 2.983,2.981 1.646,0 2.982,-1.333 2.982,-2.981 0,-1.647 -1.336,-2.984 -2.982,-2.984 m -5.965,35.729 c 0,1.648 1.337,2.983 2.982,2.983 1.647,0 2.983,-1.335 2.983,-2.983 0,-1.646 -1.336,-2.982 -2.983,-2.982 -1.645,0 -2.982,1.336 -2.982,2.982 m 9.394,48.047 C 82.897,68.433 80.306,74.382 77.418,80.17 82.792,46.912 75.689,7.268 39.726,-32.428 c 3.693,2.685 7.305,4.614 10.821,5.842 4.602,1.926 9.717,2.887 14.769,2.218 5.627,-0.671 10.948,-3.094 15.474,-6.412 3.833,-2.788 7.174,-6.152 10.185,-9.766 2.162,10.407 3.578,20.945 4.194,31.497 1.423,24.314 -1.81,48.786 -10.062,71.375 M 295.903,144.1 c -3.006,0 -5.446,2.44 -5.446,5.447 0,3.009 2.44,5.446 5.446,5.446 3.009,0 5.447,-2.437 5.447,-5.446 0,-3.007 -2.438,-5.447 -5.447,-5.447 M 258.949,78.059 c -4.153,0 -7.52,3.367 -7.52,7.521 0,4.153 3.367,7.52 7.52,7.52 4.152,0 7.522,-3.367 7.522,-7.52 0,-4.154 -3.37,-7.521 -7.522,-7.521 m -38.254,67.989 c -1.933,0 -3.499,1.566 -3.499,3.499 0,1.937 1.566,3.503 3.499,3.503 1.933,0 3.503,-1.566 3.503,-3.503 0,-1.933 -1.57,-3.499 -3.503,-3.499 m 35.27,-11.411 c 1.647,0 2.984,-1.337 2.984,-2.985 0,-1.646 -1.337,-2.98 -2.984,-2.98 -1.648,0 -2.981,1.334 -2.981,2.98 0,1.648 1.333,2.985 2.981,2.985 m -64.962,-8.949 c -1.649,0 -2.984,1.337 -2.984,2.984 0,1.647 1.335,2.98 2.984,2.98 1.645,0 2.98,-1.333 2.98,-2.98 0,-1.647 -1.335,-2.984 -2.98,-2.984 m -38.208,20.878 c -1.649,0 -2.984,1.334 -2.984,2.981 0,1.647 1.335,2.984 2.984,2.984 1.645,0 2.98,-1.337 2.98,-2.984 0,-1.647 -1.335,-2.981 -2.98,-2.981 m 52.472,19.552 c -35.522,1.342 -71.015,3.348 -106.473,5.829 -19.906,1.406 -39.782,2.947 -59.662,4.64 14.553,-4.504 28.912,-9.547 43.074,-15.062 30.667,-11.903 60.335,-26.193 88.831,-42.422 14.214,-8.187 28.082,-16.936 41.654,-26.1 13.45,-9.346 26.659,-19.023 39.321,-29.376 10.785,-8.753 21.199,-17.939 31.268,-27.476 -0.84,5.232 -1.09,10.49 -0.873,15.674 0.292,7.474 1.376,14.847 3.03,22.06 3.336,14.422 8.902,28.231 16.265,41.022 7.363,12.782 16.67,24.522 27.78,34.376 7.542,6.683 15.959,12.423 24.981,16.997 -14.181,-0.81 -28.381,-1.292 -42.584,-1.559 -35.544,-0.618 -71.098,0.074 -106.612,1.397 m -63.67,35.657 c 1.432,0 2.593,-1.161 2.593,-2.593 0,-1.432 -1.161,-2.593 -2.593,-2.593 -1.433,0 -2.594,1.161 -2.594,2.593 0,1.432 1.161,2.593 2.594,2.593 m 43.828,-6.572 c 1.432,0 2.594,-1.163 2.594,-2.594 0,-1.434 -1.162,-2.593 -2.594,-2.593 -1.433,0 -2.594,1.159 -2.594,2.593 0,1.431 1.161,2.594 2.594,2.594 m 45.544,36.915 c 1.432,0 2.593,-1.163 2.593,-2.594 0,-1.434 -1.161,-2.592 -2.593,-2.592 -1.432,0 -2.593,1.158 -2.593,2.592 0,1.431 1.161,2.594 2.593,2.594 m 22.015,-28.045 c 4.131,0 7.483,-3.351 7.483,-7.484 0,-4.134 -3.352,-7.484 -7.483,-7.484 -4.134,0 -7.486,3.35 -7.486,7.484 0,4.133 3.352,7.484 7.486,7.484 m 25.975,44.643 c 3.35,0 6.064,-2.717 6.064,-6.067 0,-3.346 -2.714,-6.061 -6.064,-6.061 -3.348,0 -6.062,2.715 -6.062,6.061 0,3.35 2.714,6.067 6.062,6.067 m -73.221,-74.309 c 35.331,-2.703 70.719,-4.773 106.147,-5.537 14.677,-0.296 29.362,-0.354 44.039,-0.065 -9.237,4.403 -17.536,10.677 -24.406,18.054 -9.794,10.471 -17.109,22.928 -22.182,36.11 -5.069,13.195 -7.901,27.238 -8.11,41.4 -0.085,7.075 0.518,14.195 2.054,21.173 1.08,4.928 2.676,9.79 4.863,14.403 -14.134,-9.042 -28.526,-17.704 -43.359,-25.603 -12.766,-7.332 -26.067,-13.617 -39.204,-20.278 -6.63,-3.203 -13.375,-6.148 -20.062,-9.238 l -10.062,-4.571 -10.201,-4.242 -10.21,-4.243 c -3.399,-1.426 -6.801,-2.849 -10.262,-4.114 l -20.688,-7.848 -20.909,-7.262 c -6.976,-2.421 -14.057,-4.508 -21.088,-6.779 -7.029,-2.282 -14.174,-4.165 -21.264,-6.271 -7.105,-2.036 -14.285,-3.823 -21.439,-5.727 -4.436,-1.054 -8.867,-2.128 -13.312,-3.171 17.925,-2.203 35.876,-4.282 53.819,-6.251 35.223,-3.854 70.503,-7.227 105.836,-9.94 M 200.983,38.536 c -4.011,0 -7.263,3.254 -7.263,7.264 0,4.011 3.252,7.263 7.263,7.263 4.012,0 7.264,-3.252 7.264,-7.263 0,-4.01 -3.252,-7.264 -7.264,-7.264 M 188.019,82.6 c -1.648,0 -2.981,1.333 -2.981,2.98 0,1.647 1.333,2.984 2.981,2.984 1.647,0 2.984,-1.337 2.984,-2.984 0,-1.647 -1.337,-2.98 -2.984,-2.98 m -35.224,-2.985 c -1.649,0 -2.984,1.337 -2.984,2.985 0,1.644 1.335,2.98 2.984,2.98 1.645,0 2.98,-1.336 2.98,-2.98 0,-1.648 -1.335,-2.985 -2.98,-2.985 m -16.772,27.644 c -1.649,0 -2.985,1.335 -2.985,2.982 0,1.65 1.336,2.983 2.985,2.983 1.645,0 2.98,-1.333 2.98,-2.983 0,-1.647 -1.335,-2.982 -2.98,-2.982 m -32.031,18.429 c -1.646,0 -2.98,1.337 -2.98,2.984 0,1.647 1.334,2.98 2.98,2.98 1.648,0 2.985,-1.333 2.985,-2.98 0,-1.647 -1.337,-2.984 -2.985,-2.984 M 209.288,87.792 c -13.809,8.493 -27.869,16.549 -42.226,24.027 -28.787,14.811 -58.564,27.622 -89.131,38.014 -10.029,3.422 -20.139,6.593 -30.31,9.517 5.151,-4.097 10.154,-8.322 15.076,-12.622 19.711,-17.346 38.084,-35.912 55.616,-55.186 17.515,-19.288 34.214,-39.274 49.872,-60.034 8.424,-11.2 16.595,-22.615 24.274,-34.332 1.125,3.342 2.928,6.344 4.92,8.991 3.053,3.985 6.66,7.333 10.477,10.313 7.661,5.932 16.212,10.385 25.113,13.826 8.913,3.414 18.251,5.791 27.859,6.737 5.958,0.557 12.083,0.592 18.154,-0.307 -9.572,8.214 -19.411,16.102 -29.521,23.617 -12.993,9.735 -26.484,18.763 -40.173,27.439 M 149.811,19.359 c -3.007,0 -5.447,2.44 -5.447,5.446 0,3.008 2.44,5.446 5.447,5.446 3.008,0 5.446,-2.438 5.446,-5.446 0,-3.006 -2.438,-5.446 -5.446,-5.446 m -31.555,20.476 c -1.647,0 -2.981,1.335 -2.981,2.984 0,1.648 1.334,2.981 2.981,2.981 1.647,0 2.984,-1.333 2.984,-2.981 0,-1.649 -1.337,-2.984 -2.984,-2.984 M 115.275,5.228 c -1.648,0 -2.984,1.333 -2.984,2.979 0,1.647 1.336,2.984 2.984,2.984 1.646,0 2.981,-1.337 2.981,-2.984 0,-1.646 -1.335,-2.979 -2.981,-2.979 m -8.298,62.295 c -1.649,0 -2.985,1.335 -2.985,2.983 0,1.646 1.336,2.982 2.985,2.982 1.645,0 2.98,-1.336 2.98,-2.982 0,-1.648 -1.335,-2.983 -2.98,-2.983 m 5.347,18.276 c -18.348,18.131 -37.476,35.484 -57.578,51.35 -0.295,0.232 -0.598,0.454 -0.892,0.687 2.596,-3.764 5.158,-7.851 7.595,-12.245 14.073,-18.174 24.986,-38.776 31.535,-60.657 7.313,-24.151 9.163,-49.65 6.321,-74.337 -1.069,-9.278 -2.701,-18.47 -4.922,-27.502 4.583,6.202 9.762,11.994 15.589,17.13 7.59,6.69 16.32,12.199 25.826,15.967 9.498,3.773 19.801,5.733 30.122,5.457 8.365,-0.227 16.677,-1.953 24.503,-4.927 -8.124,11.026 -16.689,21.723 -25.483,32.198 -16.647,19.789 -34.274,38.725 -52.616,56.879 m -588.135,162.917 c 3.348,0 6.061,-2.717 6.061,-6.067 0,-3.346 -2.713,-6.061 -6.061,-6.061 -3.35,0 -6.063,2.715 -6.063,6.061 0,3.35 2.713,6.067 6.063,6.067 m 25.975,-44.643 c 4.134,0 7.485,-3.351 7.485,-7.484 0,-4.133 -3.351,-7.484 -7.484,-7.484 -4.134,0 -7.482,3.351 -7.482,7.484 0,4.133 3.348,7.484 7.481,7.484 m 22.014,28.045 c 1.432,0 2.594,-1.163 2.594,-2.594 0,-1.433 -1.162,-2.592 -2.594,-2.592 -1.432,0 -2.593,1.159 -2.593,2.592 0,1.431 1.161,2.594 2.593,2.594 m 45.545,-36.915 c 1.434,0 2.593,-1.163 2.593,-2.594 0,-1.434 -1.159,-2.592 -2.593,-2.592 -1.431,0 -2.594,1.158 -2.594,2.592 0,1.431 1.163,2.594 2.594,2.594 m 43.828,6.572 c 1.434,0 2.593,-1.161 2.593,-2.592 0,-1.433 -1.159,-2.594 -2.593,-2.594 -1.431,0 -2.594,1.161 -2.594,2.594 0,1.431 1.163,2.592 2.594,2.592 M -507.441,168.87 c 35.426,0.764 70.814,2.834 106.146,5.537 35.331,2.713 70.611,6.086 105.833,9.941 16.16,1.772 32.324,3.642 48.472,5.607 -2.737,0.527 -5.477,1.05 -8.197,1.625 -14.562,3.175 -29.035,6.658 -43.304,10.799 -14.312,3.996 -28.418,8.651 -42.422,13.518 l -20.86,7.702 -20.545,8.474 c -27.164,11.773 -53.85,24.652 -79.239,39.769 l -9.581,5.547 c -1.588,0.936 -3.205,1.824 -4.771,2.8 l -4.648,3.006 -18.579,12.02 c -1.169,0.717 -2.307,1.474 -3.448,2.232 1.62,-3.857 2.858,-7.857 3.746,-11.905 1.535,-6.978 2.139,-14.098 2.054,-21.173 -0.208,-14.162 -3.041,-28.205 -8.109,-41.4 -5.075,-13.182 -12.39,-25.639 -22.181,-36.11 -6.872,-7.377 -15.167,-13.651 -24.406,-18.054 14.677,-0.289 29.36,-0.231 44.039,0.065 M -275.548,11.297 c -1.644,0 -2.982,1.336 -2.982,2.982 0,1.648 1.338,2.983 2.982,2.983 1.646,0 2.983,-1.335 2.983,-2.983 0,-1.646 -1.337,-2.982 -2.983,-2.982 m -2.982,-32.747 c -1.647,0 -2.983,1.337 -2.983,2.984 0,1.648 1.336,2.981 2.983,2.981 1.647,0 2.982,-1.333 2.982,-2.981 0,-1.647 -1.335,-2.984 -2.982,-2.984 m 5.555,101.62 c -2.886,-5.788 -5.478,-11.737 -7.69,-17.844 -8.251,-22.589 -11.484,-47.061 -10.061,-71.375 0.615,-10.552 2.034,-21.09 4.193,-31.497 3.011,3.614 6.353,6.978 10.187,9.766 4.523,3.318 9.845,5.742 15.471,6.412 5.629,0.744 11.338,-0.519 16.32,-2.905 5.036,-2.369 9.422,-5.813 13.393,-9.581 l -0.004,0.007 C -270.709,4.317 -278.548,45.68 -272.975,80.17 M -455.8,78.059 c -4.153,0 -7.521,3.367 -7.521,7.521 0,4.153 3.368,7.52 7.521,7.52 4.154,0 7.521,-3.367 7.521,-7.52 0,-4.154 -3.367,-7.521 -7.521,-7.521 m 2.983,56.578 c 1.646,0 2.982,-1.337 2.982,-2.985 0,-1.646 -1.336,-2.979 -2.982,-2.979 -1.648,0 -2.983,1.333 -2.983,2.979 0,1.648 1.335,2.985 2.983,2.985 m -39.939,9.465 c -3.009,0 -5.446,2.439 -5.446,5.445 0,3.009 2.437,5.446 5.446,5.446 3.007,0 5.447,-2.437 5.447,-5.446 0,-3.006 -2.44,-5.445 -5.447,-5.445 m 75.208,8.949 c 1.933,0 3.501,-1.567 3.501,-3.504 0,-1.933 -1.568,-3.499 -3.501,-3.499 -1.932,0 -3.501,1.566 -3.501,3.499 0,1.937 1.569,3.504 3.501,3.504 m 29.695,-21.399 c 1.649,0 2.982,-1.333 2.982,-2.979 0,-1.648 -1.333,-2.985 -2.982,-2.985 -1.645,0 -2.983,1.337 -2.983,2.985 0,1.646 1.338,2.979 2.983,2.979 m 38.208,20.879 c 1.649,0 2.982,-1.337 2.982,-2.984 0,-1.647 -1.333,-2.981 -2.982,-2.981 -1.646,0 -2.983,1.334 -2.983,2.981 0,1.647 1.337,2.984 2.983,2.984 m -88.388,-80.807 c 3.211,2.542 6.363,5.168 9.63,7.648 6.564,4.909 13.034,9.964 19.791,14.622 13.327,9.581 27.157,18.474 41.27,26.906 14.1,8.471 28.627,16.245 43.436,23.46 14.814,7.217 29.941,13.826 45.368,19.735 11.106,4.258 22.368,8.136 33.763,11.639 -16.517,-1.359 -33.034,-2.622 -49.575,-3.787 -35.46,-2.481 -70.953,-4.487 -106.47,-5.829 -35.518,-1.322 -71.072,-2.015 -106.616,-1.397 -14.202,0.267 -28.403,0.75 -42.585,1.559 9.022,-4.574 17.438,-10.314 24.982,-16.996 11.108,-9.855 20.418,-21.595 27.781,-34.377 7.361,-12.791 12.931,-26.6 16.264,-41.022 1.653,-7.213 2.737,-14.586 3.028,-22.06 0.224,-5.264 -0.036,-10.6 -0.907,-15.907 0.038,0.007 0.077,0.018 0.115,0.026 10.107,9.647 20.5,18.999 31.212,27.999 3.084,2.7 6.323,5.205 9.513,7.781 m 53.162,10.876 c -1.647,0 -2.982,1.333 -2.982,2.98 0,1.647 1.335,2.984 2.982,2.984 1.647,0 2.982,-1.337 2.982,-2.984 0,-1.647 -1.335,-2.98 -2.982,-2.98 m -12.965,-44.064 c -4.01,0 -7.264,3.254 -7.264,7.264 0,4.011 3.254,7.263 7.264,7.263 4.014,0 7.264,-3.252 7.264,-7.263 0,-4.01 -3.25,-7.264 -7.264,-7.264 m 48.191,47.044 c 1.649,0 2.982,-1.336 2.982,-2.98 0,-1.648 -1.333,-2.985 -2.982,-2.985 -1.646,0 -2.983,1.337 -2.983,2.985 0,1.644 1.337,2.98 2.983,2.98 m 16.771,27.644 c 1.649,0 2.982,-1.333 2.982,-2.983 0,-1.647 -1.333,-2.982 -2.982,-2.982 -1.644,0 -2.981,1.335 -2.981,2.982 0,1.65 1.337,2.983 2.981,2.983 m 32.028,18.428 c 1.648,0 2.983,-1.333 2.983,-2.979 0,-1.648 -1.335,-2.985 -2.983,-2.985 -1.646,0 -2.982,1.337 -2.982,2.985 0,1.646 1.336,2.979 2.982,2.979 m -40.456,-66.613 c 8.118,10.195 16.549,20.149 25.278,29.851 17.468,19.399 36.129,37.802 56.414,54.59 4.956,4.089 10.012,8.073 15.214,11.912 -10.052,-2.708 -20.042,-5.694 -29.936,-9.012 -15.305,-5.13 -30.394,-10.976 -45.23,-17.439 -14.831,-6.466 -29.446,-13.503 -43.684,-21.261 -14.26,-7.718 -28.289,-15.917 -41.867,-24.836 -6.885,-4.327 -13.496,-9.053 -20.209,-13.644 -3.336,-2.322 -6.571,-4.788 -9.862,-7.177 -3.271,-2.419 -6.595,-4.769 -9.766,-7.318 -9.975,-7.684 -19.733,-15.674 -29.263,-23.928 5.965,0.845 11.976,0.813 17.825,0.266 9.61,-0.946 18.949,-3.323 27.861,-6.737 8.901,-3.441 17.455,-7.894 25.117,-13.826 3.813,-2.98 7.42,-6.328 10.472,-10.313 2.074,-2.751 3.938,-5.888 5.05,-9.395 7.219,12.619 15.015,24.929 23.321,36.891 7.413,10.691 15.181,21.152 23.265,31.376 m -81.074,213.92 c 1.433,0 2.594,-1.16 2.594,-2.593 0,-1.432 -1.161,-2.594 -2.594,-2.594 -1.433,0 -2.594,1.162 -2.594,2.594 0,1.433 1.161,2.593 2.594,2.593 m 7.78,38.641 c 4.297,0 7.781,-3.484 7.781,-7.78 0,-4.297 -3.484,-7.78 -7.781,-7.78 -4.297,0 -7.78,3.483 -7.78,7.78 0,4.296 3.483,7.78 7.78,7.78 m 41.942,-38.641 c 1.434,0 2.594,-1.161 2.594,-2.593 0,-1.432 -1.16,-2.594 -2.594,-2.594 -1.43,0 -2.593,1.162 -2.593,2.594 0,1.432 1.163,2.593 2.593,2.593 m 20.415,-31.122 c 1.432,0 2.594,-1.163 2.594,-2.594 0,-1.43 -1.162,-2.594 -2.594,-2.594 -1.433,0 -2.593,1.164 -2.593,2.594 0,1.431 1.16,2.594 2.593,2.594 m -145.782,49.128 19.046,-11.091 4.762,-2.771 c 1.598,-0.9 3.252,-1.703 4.877,-2.561 l 9.779,-5.065 c 25.902,-13.821 52.955,-25.332 80.31,-35.692 l 20.658,-7.407 20.911,-6.622 c 14.013,-4.145 28.084,-8.068 42.307,-11.325 6.202,-1.488 12.431,-2.833 18.671,-4.093 -26.864,17.934 -56.378,44.465 -82.239,74.868 -28.856,33.92 -53.939,71.899 -65.175,108.709 0.435,-6.076 0.285,-12.194 -0.681,-18.269 -1.939,-13.034 -7.62,-25.516 -15.96,-35.83 -8.329,-10.361 -19.009,-18.66 -30.597,-25.021 -5.803,-3.201 -11.849,-5.937 -18.065,-8.246 -4.992,-1.812 -10.045,-3.397 -15.329,-4.511 0.271,-0.518 0.543,-1.039 0.802,-1.565 1.945,-1.212 3.911,-2.398 5.923,-3.508 M -303.828,67.523 c -1.645,0 -2.982,1.335 -2.982,2.983 0,1.646 1.337,2.982 2.982,2.982 1.649,0 2.982,-1.336 2.982,-2.982 0,-1.648 -1.333,-2.983 -2.982,-2.983 m -8.299,-62.295 c -1.644,0 -2.982,1.333 -2.982,2.979 0,1.647 1.338,2.985 2.982,2.985 1.65,0 2.983,-1.338 2.983,-2.985 0,-1.646 -1.333,-2.979 -2.983,-2.979 m -5.965,37.591 c 0,1.648 1.336,2.981 2.983,2.981 1.647,0 2.982,-1.333 2.982,-2.981 0,-1.649 -1.335,-2.984 -2.982,-2.984 -1.647,0 -2.983,1.335 -2.983,2.984 m -28.571,-23.46 c -3.009,0 -5.446,2.44 -5.446,5.446 0,3.009 2.437,5.446 5.446,5.446 3.007,0 5.446,-2.437 5.446,-5.446 0,-3.006 -2.439,-5.446 -5.446,-5.446 m 58.12,45.575 c 6.551,21.881 17.463,42.483 31.536,60.657 4.247,7.66 8.872,14.407 13.401,20.068 -2.802,-1.955 -5.586,-3.949 -8.341,-5.987 -20.519,-15.212 -39.838,-32.308 -58.058,-50.498 -9.115,-9.102 -17.964,-18.485 -26.528,-28.132 -8.526,-9.681 -16.77,-19.623 -24.686,-29.832 -8.619,-11.099 -16.788,-22.563 -24.455,-34.366 7.739,2.894 15.942,4.58 24.197,4.805 10.32,0.276 20.623,-1.683 30.122,-5.456 9.507,-3.769 18.238,-9.278 25.828,-15.968 5.825,-5.136 11.004,-10.928 15.587,-17.13 -2.217,9.032 -3.855,18.224 -4.922,27.502 -2.843,24.688 -0.991,50.186 6.319,74.337"
             style="fill:#ed1c24;fill-opacity:1;fill-rule:nonzero;stroke:none"
             id="path49641" />
        </g>
        <g
           id="g49643"
           transform="translate(590.8779,370.3291)">
          <path
             d="m 0,0 c -3.943,0 -7.14,-3.196 -7.14,-7.14 0,-3.946 3.197,-7.143 7.14,-7.143 3.944,0 7.142,3.197 7.142,7.143 C 7.142,-3.196 3.944,0 0,0 m 7.142,120.777 c 0,5.005 -4.056,9.061 -9.061,9.061 -5.005,0 -9.06,-4.056 -9.06,-9.061 0,-5 4.055,-9.058 9.06,-9.058 5.005,0 9.061,4.058 9.061,9.058 m 94.446,-55.925 c 2.885,0 5.225,2.339 5.225,5.224 0,2.888 -2.34,5.228 -5.225,5.228 -2.888,0 -5.228,-2.34 -5.228,-5.228 0,-2.885 2.34,-5.224 5.228,-5.224 M 61.465,48.629 c -2.887,0 -5.227,-2.339 -5.227,-5.228 0,-2.887 2.34,-5.225 5.227,-5.225 2.888,0 5.227,2.338 5.227,5.225 0,2.889 -2.339,5.228 -5.227,5.228 m 4.711,92.022 c -14.416,0 -26.1,-11.684 -26.1,-26.098 0,-14.411 11.684,-26.098 26.1,-26.098 14.411,0 26.097,11.687 26.097,26.098 0,14.414 -11.686,26.098 -26.097,26.098 m -158.14,-10.813 c -2.505,0 -4.532,-2.025 -4.532,-4.53 0,-2.5 2.027,-4.531 4.532,-4.531 2.498,0 4.527,2.031 4.527,4.531 0,2.505 -2.029,4.53 -4.527,4.53 m 55.296,-87.132 c -2.5,0 -4.53,-2.03 -4.53,-4.53 0,-2.502 2.03,-4.53 4.53,-4.53 2.502,0 4.53,2.028 4.53,4.53 0,2.5 -2.028,4.53 -4.53,4.53 m 48.34,33.442 c 2.502,0 4.532,2.031 4.532,4.534 0,2.5 -2.03,4.527 -4.532,4.527 -2.502,0 -4.53,-2.027 -4.53,-4.527 0,-2.503 2.028,-4.534 4.53,-4.534 m 0.381,-28.214 c -2.502,0 -4.532,-2.031 -4.532,-4.533 0,-2.502 2.03,-4.53 4.532,-4.53 2.503,0 4.528,2.028 4.528,4.53 0,2.502 -2.025,4.533 -4.528,4.533 m -73.269,50.411 c -7.808,0 -14.135,-6.325 -14.135,-14.134 0,-7.805 6.327,-14.135 14.135,-14.135 7.804,0 14.134,6.33 14.134,14.135 0,7.809 -6.33,14.134 -14.134,14.134 m 312.614,-3.242 c -3.004,0 -5.446,-2.438 -5.446,-5.447 0,-3.004 2.442,-5.445 5.446,-5.445 3.009,0 5.447,2.441 5.447,5.445 0,3.009 -2.438,5.447 -5.447,5.447 m 146.093,124.742 c -3.005,0 -5.446,-2.438 -5.446,-5.447 0,-3.004 2.441,-5.446 5.446,-5.446 3.009,0 5.446,2.442 5.446,5.446 0,3.009 -2.437,5.447 -5.446,5.447 m -75.208,-1.946 c -1.933,0 -3.502,-1.565 -3.502,-3.501 0,-1.932 1.569,-3.5 3.502,-3.5 1.935,0 3.501,1.568 3.501,3.5 0,1.936 -1.566,3.501 -3.501,3.501 m -19.712,-99.985 c -4.011,0 -7.263,-3.249 -7.263,-7.263 0,-4.011 3.252,-7.263 7.263,-7.263 4.012,0 7.264,3.252 7.264,7.263 0,4.014 -3.252,7.263 -7.264,7.263 m -64.963,60.161 c -1.646,0 -2.982,-1.333 -2.982,-2.98 0,-1.648 1.336,-2.985 2.982,-2.985 1.648,0 2.983,1.337 2.983,2.985 0,1.647 -1.335,2.98 -2.983,2.98 m 16.773,-27.643 c -1.648,0 -2.983,-1.336 -2.983,-2.983 0,-1.647 1.335,-2.982 2.983,-2.982 1.646,0 2.982,1.335 2.982,2.982 0,1.647 -1.336,2.983 -2.982,2.983 M 180.285,46.384 c 0,-1.648 1.335,-2.983 2.981,-2.983 1.646,0 2.984,1.335 2.984,2.983 0,1.647 -1.338,2.982 -2.984,2.982 -1.646,0 -2.981,-1.335 -2.981,-2.982 m 0,29.764 c 1.645,0 2.981,1.338 2.981,2.985 0,1.647 -1.336,2.98 -2.981,2.98 -1.645,0 -2.984,-1.333 -2.984,-2.98 0,-1.647 1.339,-2.985 2.984,-2.985 m 28.277,62.194 c -1.646,0 -2.982,-1.338 -2.982,-2.985 0,-1.647 1.336,-2.98 2.982,-2.98 1.648,0 2.983,1.333 2.983,2.98 0,1.647 -1.335,2.985 -2.983,2.985 m 11.282,-27.691 c -1.647,0 -2.983,-1.336 -2.983,-2.98 0,-1.648 1.336,-2.985 2.983,-2.985 1.647,0 2.982,1.337 2.982,2.985 0,1.644 -1.335,2.98 -2.982,2.98 m -2.983,-34.61 c -1.646,0 -2.982,-1.335 -2.982,-2.982 0,-1.647 1.336,-2.983 2.982,-2.983 1.648,0 2.983,1.336 2.983,2.983 0,1.647 -1.335,2.982 -2.983,2.982 m 72.746,77.373 c -1.648,0 -2.983,-1.336 -2.983,-2.982 0,-1.648 1.335,-2.983 2.983,-2.983 1.647,0 2.982,1.335 2.982,2.983 0,1.646 -1.335,2.982 -2.982,2.982 m -84.027,43.09 c -1.646,0 -2.982,-1.335 -2.982,-2.983 0,-1.646 1.336,-2.982 2.982,-2.982 1.648,0 2.982,1.336 2.982,2.982 0,1.648 -1.334,2.983 -2.982,2.983 m 48.801,20.877 c -1.648,0 -2.983,-1.335 -2.983,-2.983 0,-1.646 1.335,-2.982 2.983,-2.982 1.646,0 2.982,1.336 2.982,2.982 0,1.648 -1.336,2.983 -2.982,2.983 m 38.208,-20.877 c -1.648,0 -2.982,-1.335 -2.982,-2.983 0,-1.646 1.334,-2.982 2.982,-2.982 1.646,0 2.982,1.336 2.982,2.982 0,1.648 -1.336,2.983 -2.982,2.983 m 64.964,-2.983 c 1.647,0 2.982,1.336 2.982,2.983 0,1.647 -1.335,2.982 -2.982,2.982 -1.648,0 -2.983,-1.335 -2.983,-2.982 0,-1.647 1.335,-2.983 2.983,-2.983 m 2.982,-35.569 c -4.153,0 -7.52,-3.367 -7.52,-7.52 0,-4.155 3.367,-7.522 7.52,-7.522 4.154,0 7.522,3.367 7.522,7.522 0,4.153 -3.368,7.52 -7.522,7.52 M 327.111,374.67 c 0,4.298 -3.483,7.78 -7.78,7.78 -4.298,0 -7.78,-3.482 -7.78,-7.78 0,-4.295 3.482,-7.78 7.78,-7.78 4.297,0 7.78,3.485 7.78,7.78 M 354.57,268.925 c -4.133,0 -7.484,-3.352 -7.484,-7.485 0,-4.133 3.351,-7.484 7.484,-7.484 4.136,0 7.485,3.351 7.485,7.484 0,4.133 -3.349,7.485 -7.485,7.485 m -27.459,74.884 c -1.43,0 -2.593,-1.16 -2.593,-2.594 0,-1.43 1.163,-2.593 2.593,-2.593 1.432,0 2.593,1.163 2.593,2.593 0,1.434 -1.161,2.594 -2.593,2.594 m -49.722,0 c -1.433,0 -2.594,-1.16 -2.594,-2.594 0,-1.43 1.161,-2.593 2.594,-2.593 1.432,0 2.593,1.163 2.593,2.593 0,1.434 -1.161,2.594 -2.593,2.594 m -20.415,-31.121 c -1.433,0 -2.593,-1.161 -2.593,-2.593 0,-1.433 1.16,-2.594 2.593,-2.594 1.432,0 2.593,1.161 2.593,2.594 0,1.432 -1.161,2.593 -2.593,2.593 m 30.039,-52.633 c -1.433,0 -2.594,-1.163 -2.594,-2.594 0,-1.433 1.161,-2.594 2.594,-2.594 1.432,0 2.594,1.161 2.594,2.594 0,1.431 -1.162,2.594 -2.594,2.594 m -43.828,6.572 c -1.433,0 -2.594,-1.161 -2.594,-2.594 0,-1.431 1.161,-2.593 2.594,-2.593 1.432,0 2.592,1.162 2.592,2.593 0,1.433 -1.16,2.594 -2.592,2.594 m 89.372,30.343 c -1.43,0 -2.593,-1.163 -2.593,-2.594 0,-1.435 1.163,-2.593 2.593,-2.593 1.432,0 2.593,1.158 2.593,2.593 0,1.431 -1.161,2.594 -2.593,2.594 m 47.99,4.47 c 3.349,0 6.064,2.714 6.064,6.061 0,3.35 -2.715,6.066 -6.064,6.066 -3.345,0 -6.063,-2.716 -6.063,-6.066 0,-3.347 2.718,-6.061 6.063,-6.061 M -245.075,95.103 c -3.007,0 -5.446,-2.437 -5.446,-5.447 0,-3.004 2.439,-5.445 5.446,-5.445 3.009,0 5.446,2.441 5.446,5.445 0,3.01 -2.437,5.447 -5.446,5.447 m -146.093,124.742 c -3.007,0 -5.446,-2.438 -5.446,-5.447 0,-3.004 2.439,-5.445 5.446,-5.445 3.009,0 5.446,2.441 5.446,5.445 0,3.009 -2.437,5.447 -5.446,5.447 m 75.208,-8.947 c 1.933,0 3.501,1.568 3.501,3.5 0,1.936 -1.568,3.501 -3.501,3.501 -1.932,0 -3.501,-1.565 -3.501,-3.501 0,-1.932 1.569,-3.5 3.501,-3.5 m 19.712,-92.984 c -4.012,0 -7.264,-3.249 -7.264,-7.263 0,-4.011 3.252,-7.263 7.264,-7.263 4.014,0 7.264,3.252 7.264,7.263 0,4.014 -3.25,7.263 -7.264,7.263 m 64.962,54.196 c 1.645,0 2.982,1.337 2.982,2.985 0,1.647 -1.337,2.98 -2.982,2.98 -1.645,0 -2.981,-1.333 -2.981,-2.98 0,-1.648 1.336,-2.985 2.981,-2.985 m -16.772,-27.643 c 1.646,0 2.983,1.335 2.983,2.982 0,1.647 -1.337,2.983 -2.983,2.983 -1.645,0 -2.982,-1.336 -2.982,-2.983 0,-1.647 1.337,-2.982 2.982,-2.982 m 71.116,-95.101 c -1.647,0 -2.983,-1.335 -2.983,-2.982 0,-1.648 1.336,-2.983 2.983,-2.983 1.649,0 2.982,1.335 2.982,2.983 0,1.647 -1.333,2.982 -2.982,2.982 m 0,29.767 c 0,-1.647 1.333,-2.985 2.982,-2.985 1.648,0 2.983,1.338 2.983,2.985 0,1.647 -1.335,2.98 -2.983,2.98 -1.649,0 -2.982,-1.333 -2.982,-2.98 m -25.298,59.209 c -1.645,0 -2.983,-1.338 -2.983,-2.985 0,-1.647 1.338,-2.98 2.983,-2.98 1.645,0 2.982,1.333 2.982,2.98 0,1.647 -1.337,2.985 -2.982,2.985 m -8.299,-30.671 c 0,1.645 -1.335,2.98 -2.982,2.98 -1.647,0 -2.983,-1.335 -2.983,-2.98 0,-1.648 1.336,-2.985 2.983,-2.985 1.647,0 2.982,1.337 2.982,2.985 m 0,-31.63 c -1.645,0 -2.982,-1.335 -2.982,-2.982 0,-1.647 1.337,-2.983 2.982,-2.983 1.646,0 2.982,1.336 2.982,2.983 0,1.647 -1.336,2.982 -2.982,2.982 m -72.744,77.373 c -1.648,0 -2.983,-1.336 -2.983,-2.982 0,-1.648 1.335,-2.983 2.983,-2.983 1.647,0 2.982,1.335 2.982,2.983 0,1.646 -1.335,2.982 -2.982,2.982 m 84.025,37.125 c 1.648,0 2.983,1.336 2.983,2.982 0,1.648 -1.335,2.983 -2.983,2.983 -1.646,0 -2.982,-1.335 -2.982,-2.983 0,-1.646 1.336,-2.982 2.982,-2.982 m -48.8,20.877 c 1.646,0 2.983,1.336 2.983,2.982 0,1.648 -1.337,2.983 -2.983,2.983 -1.645,0 -2.982,-1.335 -2.982,-2.983 0,-1.646 1.337,-2.982 2.982,-2.982 m -38.208,-20.877 c 1.646,0 2.983,1.336 2.983,2.982 0,1.648 -1.337,2.983 -2.983,2.983 -1.644,0 -2.982,-1.335 -2.982,-2.983 0,-1.646 1.338,-2.982 2.982,-2.982 m -64.963,2.982 c 1.646,0 2.982,1.336 2.982,2.983 0,1.647 -1.336,2.982 -2.982,2.982 -1.648,0 -2.983,-1.335 -2.983,-2.982 0,-1.647 1.335,-2.983 2.983,-2.983 m -2.983,-35.569 c -4.153,0 -7.521,-3.367 -7.521,-7.52 0,-4.155 3.368,-7.522 7.521,-7.522 4.153,0 7.521,3.367 7.521,7.522 0,4.153 -3.368,7.52 -7.521,7.52 m 41.206,208.938 c 4.295,0 7.78,3.485 7.78,7.78 0,4.298 -3.485,7.78 -7.78,7.78 -4.299,0 -7.78,-3.482 -7.78,-7.78 0,-4.295 3.481,-7.78 7.78,-7.78 m -35.241,-112.934 c 4.133,0 7.483,3.352 7.483,7.484 0,4.133 -3.35,7.485 -7.484,7.485 -4.133,0 -7.481,-3.352 -7.481,-7.485 0,-4.132 3.348,-7.484 7.482,-7.484 m 24.868,87.26 c 0,-1.431 1.158,-2.594 2.593,-2.594 1.433,0 2.594,1.163 2.594,2.594 0,1.434 -1.161,2.593 -2.594,2.593 -1.435,0 -2.593,-1.159 -2.593,-2.593 m 52.313,-2.594 c 1.434,0 2.593,1.163 2.593,2.594 0,1.433 -1.159,2.593 -2.593,2.593 -1.43,0 -2.593,-1.16 -2.593,-2.593 0,-1.431 1.163,-2.594 2.593,-2.594 m 20.415,-31.121 c 1.432,0 2.593,1.161 2.593,2.594 0,1.432 -1.161,2.593 -2.593,2.593 -1.433,0 -2.593,-1.161 -2.593,-2.593 0,-1.433 1.16,-2.594 2.593,-2.594 m -30.038,-52.633 c 1.429,0 2.592,1.16 2.592,2.593 0,1.431 -1.163,2.594 -2.592,2.594 -1.431,0 -2.594,-1.163 -2.594,-2.594 0,-1.433 1.163,-2.593 2.594,-2.593 m 43.828,6.572 c 1.429,0 2.593,1.162 2.593,2.594 0,1.432 -1.164,2.593 -2.593,2.593 -1.431,0 -2.594,-1.161 -2.594,-2.593 0,-1.432 1.163,-2.594 2.594,-2.594 m -89.371,30.343 c 1.432,0 2.593,1.159 2.593,2.593 0,1.431 -1.161,2.594 -2.593,2.594 -1.434,0 -2.593,-1.163 -2.593,-2.594 0,-1.434 1.159,-2.593 2.593,-2.593 m -54.054,15.718 c 0,3.35 2.713,6.066 6.062,6.066 3.349,0 6.064,-2.716 6.064,-6.066 0,-3.347 -2.715,-6.061 -6.064,-6.061 -3.349,0 -6.062,2.714 -6.062,6.061"
             style="fill:#f9ed32;fill-opacity:1;fill-rule:nonzero;stroke:none"
             id="path49645" />
        </g>
        <g
           id="g49647"
           transform="translate(403.9229,500.1143)">
          <path
             d="m 0,0 c -7.311,-24.15 -9.162,-49.648 -6.317,-74.337 1.065,-9.277 2.703,-18.468 4.92,-27.502 -4.583,6.202 -9.762,11.994 -15.589,17.131 -7.588,6.692 -16.319,12.196 -25.827,15.968 -9.497,3.774 -19.801,5.731 -30.122,5.456 -8.254,-0.226 -16.456,-1.911 -24.191,-4.806 7.66,11.804 15.831,23.27 24.45,34.366 7.916,10.209 16.16,20.152 24.689,29.832 8.563,9.648 17.41,19.031 26.525,28.134 18.22,18.189 37.541,35.284 58.062,50.496 2.75,2.036 5.535,4.031 8.338,5.987 C 40.408,75.064 35.785,68.317 31.536,60.657 17.463,42.485 6.551,21.882 0,0 m -104.392,-58.769 c -3.055,3.988 -6.662,7.335 -10.475,10.318 -7.662,5.93 -16.216,10.383 -25.117,13.826 -8.912,3.411 -18.253,5.79 -27.857,6.736 -5.853,0.545 -11.864,0.577 -17.829,-0.267 9.53,8.254 19.288,16.241 29.263,23.927 3.171,2.549 6.495,4.9 9.765,7.319 3.292,2.39 6.527,4.854 9.863,7.177 6.717,4.59 13.326,9.317 20.207,13.643 13.578,8.919 27.611,17.118 41.869,24.836 14.236,7.758 28.852,14.796 43.683,21.262 14.837,6.463 29.926,12.306 45.231,17.438 9.893,3.319 19.884,6.307 29.935,9.012 C 38.945,92.621 33.889,88.636 28.933,84.547 8.647,67.759 -10.013,49.355 -27.482,29.956 -36.212,20.255 -44.643,10.299 -52.759,0.104 c -8.084,-10.222 -15.848,-20.683 -23.267,-31.375 -8.304,-11.961 -16.1,-24.27 -23.319,-36.89 -1.112,3.507 -2.976,6.643 -5.047,9.392 m -85.938,29.753 c 0.871,5.307 1.131,10.646 0.907,15.908 -0.291,7.473 -1.375,14.846 -3.028,22.059 -3.333,14.424 -8.903,28.232 -16.264,41.023 -7.363,12.782 -16.673,24.521 -27.781,34.376 -7.541,6.682 -15.96,12.424 -24.983,16.999 14.183,-0.812 28.382,-1.292 42.587,-1.562 35.541,-0.62 71.097,0.072 106.615,1.399 35.517,1.34 71.009,3.344 106.47,5.828 16.541,1.167 33.058,2.427 49.575,3.787 C 32.373,107.296 21.111,103.42 10.005,99.161 -5.422,93.253 -20.549,86.644 -35.361,79.427 -50.172,72.212 -64.701,64.439 -78.794,55.969 c -14.118,-8.435 -27.948,-17.327 -41.275,-26.91 -6.757,-4.657 -13.229,-9.711 -19.793,-14.621 -3.26,-2.48 -6.417,-5.106 -9.628,-7.648 -3.19,-2.575 -6.429,-5.08 -9.513,-7.78 -10.712,-8.998 -21.107,-18.355 -31.212,-27.999 -0.038,-0.008 -0.077,-0.018 -0.115,-0.027 m -48.201,150.942 c 9.793,10.47 17.104,22.927 22.181,36.109 5.07,13.195 7.901,27.238 8.109,41.401 0.085,7.077 -0.519,14.195 -2.054,21.174 -0.888,4.046 -2.126,8.046 -3.746,11.904 1.141,-0.756 2.283,-1.516 3.448,-2.233 l 18.579,-12.019 4.646,-3.006 c 1.568,-0.977 3.184,-1.862 4.773,-2.801 l 9.579,-5.547 c 25.391,-15.117 52.079,-27.996 79.241,-39.768 l 20.545,-8.473 20.86,-7.703 c 14.004,-4.867 28.11,-9.523 42.422,-13.519 14.269,-4.14 28.742,-7.624 43.303,-10.799 2.725,-0.575 5.46,-1.097 8.198,-1.625 -16.146,-1.962 -32.31,-3.835 -48.47,-5.607 -35.226,-3.854 -70.504,-7.228 -105.835,-9.94 -35.33,-2.703 -70.72,-4.776 -106.146,-5.538 -14.679,-0.295 -29.362,-0.356 -44.039,-0.065 9.239,4.405 17.534,10.678 24.406,18.055 m 22.328,115.178 c 5.284,1.115 10.337,2.698 15.329,4.511 6.216,2.31 12.262,5.049 18.064,8.246 11.594,6.362 22.269,14.662 30.598,25.022 8.34,10.313 14.021,22.796 15.96,35.83 0.966,6.074 1.116,12.196 0.681,18.268 11.236,-36.809 36.319,-74.789 65.175,-108.709 25.863,-30.403 55.375,-56.931 82.239,-74.87 -6.24,1.262 -12.469,2.608 -18.671,4.095 -14.223,3.258 -28.294,7.181 -42.307,11.325 l -20.911,6.62 -20.658,7.41 c -27.356,10.361 -54.404,21.871 -80.31,35.691 l -9.782,5.065 c -1.622,0.859 -3.276,1.665 -4.874,2.561 l -4.762,2.771 -19.047,11.091 c -2.011,1.111 -3.977,2.296 -5.922,3.508 -0.259,0.526 -0.531,1.047 -0.802,1.565 m 246.866,2.777 c -22.477,-32.777 9.818,-77.749 9.818,-77.749 -19.069,-2.456 -107.141,95.303 -100.315,137.362 -17.11,-11.255 2.966,-62.592 2.966,-62.592 -25.436,9.766 -82.689,86.514 -77.595,167.938 -9.586,-22.105 -9.279,-46.519 -2.358,-71.569 0.51,-7.462 0.202,-14.949 -1.204,-22.249 -2.378,-12.651 -8.321,-24.444 -16.699,-34.044 -8.38,-9.64 -18.927,-17.206 -30.241,-23.082 -5.672,-2.929 -11.577,-5.413 -17.615,-7.469 -6.022,-2.016 -12.26,-3.72 -18.37,-4.498 l -3.633,-0.464 c -1.18,0.778 -2.362,1.556 -3.554,2.326 l -18.478,12.088 17.894,-12.947 c 1.538,-1.096 3.066,-2.208 4.596,-3.321 l 1.139,-1.943 c 6.598,-11.24 8.699,-24.866 8.299,-38.095 -0.443,-13.31 -3.447,-26.541 -8.328,-38.932 -4.927,-12.371 -11.95,-23.945 -21.063,-33.452 -9.077,-9.498 -20.419,-16.735 -32.928,-20.07 l -9.13,-2.435 c -13.003,0.697 -25.986,1.824 -38.894,3.715 12.227,-2.283 24.578,-3.869 36.973,-5.056 l 10.759,-3.865 c 13.012,-4.667 25.014,-11.994 35.367,-21.232 10.378,-9.233 19.021,-20.381 26.075,-32.408 7.007,-12.063 12.342,-25.161 15.529,-38.712 3.112,-13.474 4.326,-27.764 1.001,-40.682 l -1.487,-5.772 c -9.774,-9.749 -19.26,-19.778 -28.402,-30.104 9.703,10.066 19.733,19.795 30.03,29.219 l 5.028,1.924 c 7.891,3.019 16.846,3.629 25.632,2.893 8.817,-0.759 17.602,-2.871 25.994,-5.976 8.376,-3.116 16.431,-7.252 23.527,-12.501 3.52,-2.637 6.791,-5.59 9.434,-8.907 2.607,-3.304 4.601,-7.042 4.951,-10.786 l 0.324,-3.471 c -3.845,-7.073 -7.52,-14.232 -10.965,-21.495 3.836,7.087 7.892,14.045 12.106,20.897 l 3.023,1.493 c 8.536,4.212 17.902,6.722 27.419,7.176 9.511,0.511 19.139,-1.014 28.171,-4.311 9.053,-3.279 17.463,-8.322 24.983,-14.466 7.539,-6.144 14.157,-13.447 19.846,-21.435 l 0.46,-0.648 c 0.089,-0.31 0.16,-0.621 0.249,-0.932 3.477,-11.866 7.813,-23.435 12.744,-34.715 -4.291,11.543 -7.954,23.294 -10.734,35.234 -0.093,0.409 -0.164,0.821 -0.255,1.225 3.098,4.29 6.629,8.285 10.77,11.543 4.18,3.313 9.085,5.769 14.361,6.606 5.272,0.879 10.766,-0.035 15.767,-2.108 5.036,-2.06 9.574,-5.252 13.731,-8.815 -3.971,3.768 -8.36,7.213 -13.391,9.583 -4.984,2.385 -10.693,3.647 -16.322,2.903 -5.624,-0.673 -10.944,-3.095 -15.473,-6.412 -3.832,-2.788 -7.177,-6.151 -10.185,-9.765 -2.16,10.405 -3.576,20.945 -4.194,31.495 -1.423,24.317 1.811,48.788 10.062,71.377 2.212,6.108 4.804,12.055 7.688,17.843 -5.571,-34.49 2.268,-75.852 41.811,-117.016 9.004,-9.372 19.646,-18.738 32.154,-28.005 -76.325,77.715 -59.516,198.753 7.231,209.793 25.729,4.251 37.831,-5.347 40.894,-16.648 4.889,-18.014 -13.196,-40.353 -35.744,-17.828 16.886,-29.329 47.086,-21.801 60.49,-8.736 2.826,2.754 5.175,6.04 6.947,9.729 7.486,15.586 4.606,38.48 -16.856,59.917 -50.638,50.588 -129.38,73.529 -121.83,133.439 M 618.024,84.35 C 606.915,74.495 597.607,62.756 590.245,49.974 582.882,37.183 577.314,23.375 573.979,8.951 c -1.653,-7.213 -2.737,-14.586 -3.029,-22.059 -0.217,-5.183 0.032,-10.443 0.873,-15.674 -10.071,9.536 -20.483,18.722 -31.268,27.475 -12.663,10.354 -25.872,20.031 -39.321,29.376 -13.572,9.164 -27.44,17.913 -41.651,26.101 -28.499,16.23 -58.167,30.518 -88.834,42.422 -14.162,5.512 -28.521,10.559 -43.074,15.061 19.882,-1.693 39.758,-3.235 59.662,-4.639 35.458,-2.484 70.953,-4.488 106.471,-5.828 35.516,-1.327 71.072,-2.019 106.614,-1.399 14.203,0.27 28.403,0.749 42.584,1.562 C 633.984,96.774 625.569,91.032 618.024,84.35 M 549.371,-27.889 c -9.608,-0.946 -18.946,-3.325 -27.859,-6.737 -8.901,-3.442 -17.453,-7.895 -25.116,-13.825 -3.814,-2.983 -7.418,-6.33 -10.474,-10.318 -1.992,-2.645 -3.795,-5.646 -4.92,-8.991 -7.677,11.719 -15.85,23.134 -24.272,34.334 -15.66,20.763 -32.359,40.746 -49.873,60.034 -17.533,19.275 -35.906,37.84 -55.617,55.185 -4.922,4.302 -9.928,8.526 -15.076,12.621 10.171,-2.922 20.279,-6.093 30.308,-9.515 30.569,-10.391 60.349,-23.203 89.135,-38.011 14.358,-7.481 28.414,-15.536 42.224,-24.028 13.689,-8.677 27.18,-17.706 40.173,-27.441 10.11,-7.515 19.951,-15.402 29.52,-23.616 -6.07,0.896 -12.195,0.863 -18.153,0.308 m -94.908,-35.395 c -10.321,0.275 -20.624,-1.682 -30.122,-5.457 -9.506,-3.771 -18.237,-9.276 -25.826,-15.967 -5.828,-5.137 -11.006,-10.929 -15.589,-17.131 2.219,9.034 3.853,18.225 4.922,27.502 2.843,24.688 0.992,50.187 -6.319,74.337 -6.551,21.882 -17.462,42.485 -31.537,60.657 -2.435,4.395 -4.999,8.482 -7.596,12.245 0.295,-0.232 0.598,-0.455 0.893,-0.684 20.102,-15.868 39.23,-33.222 57.578,-51.353 18.342,-18.152 35.967,-37.09 52.615,-56.877 8.795,-10.478 17.36,-21.172 25.484,-32.2 -7.826,2.975 -16.138,4.7 -24.503,4.928 m -2.539,283.555 c 28.103,33.039 52.645,69.925 64.29,105.832 0.309,0.96 0.595,1.918 0.886,2.878 -0.435,-6.072 -0.285,-12.195 0.681,-18.269 0.882,-5.924 2.573,-11.721 4.898,-17.266 2.79,-6.654 6.511,-12.938 11.062,-18.563 8.327,-10.36 19.005,-18.66 30.598,-25.022 5.801,-3.197 11.847,-5.936 18.062,-8.246 4.766,-1.73 9.58,-3.266 14.603,-4.373 -14.908,-8.604 -30.037,-16.788 -45.585,-24.146 -13.016,-6.687 -26.54,-12.309 -39.863,-18.292 -6.721,-2.865 -13.553,-5.474 -20.318,-8.218 l -10.171,-4.06 -10.302,-3.724 -10.295,-3.72 c -3.428,-1.252 -6.852,-2.496 -10.339,-3.588 l -20.8,-6.789 -20.976,-6.192 c -6.99,-2.063 -14.073,-3.791 -21.097,-5.702 -3.561,-0.972 -7.147,-1.843 -10.737,-2.69 24.976,17.72 51.718,42.303 75.403,70.15 m 139.899,0.339 c -1.536,-6.979 -2.137,-14.097 -2.055,-21.174 0.21,-14.163 3.041,-28.206 8.111,-41.401 5.073,-13.182 12.39,-25.639 22.182,-36.109 6.87,-7.377 15.167,-13.65 24.406,-18.055 -14.679,-0.291 -29.361,-0.23 -44.039,0.065 -35.428,0.762 -70.814,2.835 -106.147,5.538 -35.333,2.712 -70.613,6.086 -105.834,9.939 -17.945,1.97 -35.898,4.049 -53.821,6.251 4.443,1.043 8.876,2.117 13.311,3.171 7.155,1.904 14.334,3.691 21.44,5.728 7.09,2.105 14.235,3.989 21.264,6.27 7.031,2.273 14.112,4.358 21.087,6.779 l 20.91,7.262 20.688,7.849 c 3.461,1.262 6.864,2.687 10.262,4.111 l 10.21,4.242 10.201,4.245 10.062,4.571 c 6.687,3.09 13.432,6.036 20.06,9.239 13.137,6.66 26.44,12.945 39.206,20.277 14.835,7.9 29.225,16.562 43.36,25.604 -2.188,-4.614 -3.784,-9.474 -4.864,-14.402 m 75.84,-115.926 -9.127,2.435 c -12.511,3.335 -23.853,10.572 -32.932,20.07 -9.11,9.507 -16.133,21.08 -21.059,33.452 -4.883,12.391 -7.888,25.621 -8.327,38.932 -0.404,13.229 1.697,26.855 8.297,38.095 l 2.185,3.72 -0.145,0.02 c 7.249,4.759 14.441,9.592 21.59,14.47 -7.819,-4.81 -15.67,-9.563 -23.572,-14.217 l -2.093,0.268 c -6.111,0.778 -12.351,2.482 -18.373,4.498 -6.035,2.056 -11.941,4.54 -17.614,7.469 -11.311,5.876 -21.861,13.442 -30.241,23.082 -8.376,9.6 -14.32,21.393 -16.697,34.044 -1.409,7.3 -1.714,14.787 -1.204,22.252 6.921,25.047 7.225,49.461 -2.361,71.566 5.094,-81.424 -52.159,-158.172 -77.59,-167.938 0,0 20.075,51.337 2.964,62.592 6.823,-42.059 -81.248,-139.818 -100.317,-137.362 0,0 32.298,44.972 9.818,77.749 7.551,-59.91 -71.192,-82.851 -121.828,-133.439 -20.318,-20.296 -23.978,-41.897 -17.955,-57.366 1.843,-4.737 4.582,-8.907 8.045,-12.28 13.404,-13.065 43.603,-20.593 60.489,8.736 -23.211,-23.186 -41.691,1.167 -35.252,19.404 3.74,10.592 15.882,19.127 40.403,15.072 66.747,-11.04 83.557,-132.078 7.23,-209.793 14.475,10.724 26.442,21.578 36.273,32.424 35.963,39.695 43.065,79.34 37.693,112.597 2.886,-5.788 5.476,-11.735 7.687,-17.843 8.252,-22.589 11.485,-47.06 10.062,-71.377 -0.616,-10.55 -2.032,-21.09 -4.195,-31.495 -3.007,3.614 -6.351,6.977 -10.182,9.765 -4.528,3.317 -9.847,5.739 -15.474,6.412 -5.054,0.669 -10.169,-0.292 -14.771,-2.218 -0.522,-0.221 -1.042,-0.444 -1.551,-0.685 -5.03,-2.37 -9.419,-5.815 -13.392,-9.583 4.158,3.563 8.696,6.755 13.731,8.815 5.003,2.073 10.495,2.987 15.764,2.108 5.277,-0.837 10.184,-3.293 14.366,-6.606 4.139,-3.258 7.671,-7.253 10.77,-11.543 -0.092,-0.404 -0.162,-0.816 -0.257,-1.225 -2.78,-11.94 -6.441,-23.691 -10.734,-35.234 4.932,11.28 9.268,22.848 12.744,34.715 0.089,0.311 0.16,0.622 0.249,0.932 l 0.462,0.648 c 5.688,7.988 12.307,15.291 19.844,21.435 7.52,6.144 15.933,11.187 24.985,14.466 9.03,3.297 18.658,4.822 28.171,4.311 9.515,-0.454 18.881,-2.964 27.417,-7.177 l 4.062,-2.005 0.043,0.458 c 4.753,-6.806 9.336,-13.731 13.654,-20.842 -4.202,7.837 -8.721,15.499 -13.449,23.032 l 0.179,1.934 c 0.349,3.744 2.343,7.481 4.952,10.786 2.64,3.317 5.915,6.27 9.434,8.907 7.093,5.249 15.149,9.385 23.527,12.501 8.39,3.105 17.173,5.217 25.995,5.976 8.785,0.736 17.738,0.126 25.631,-2.893 l 5.604,-2.146 c 10.149,-9.305 19.986,-18.967 29.451,-28.997 -9.115,10.52 -18.639,20.699 -28.514,30.541 l -1.373,5.335 c -3.324,12.918 -2.113,27.208 0.999,40.682 3.188,13.551 8.525,26.649 15.533,38.712 7.052,12.027 15.694,23.175 26.073,32.407 10.352,9.239 22.356,16.566 35.364,21.233 l 10.762,3.865 c 12.393,1.187 24.745,2.773 36.975,5.056 -12.909,-1.891 -25.894,-3.018 -38.898,-3.715"
             style="fill:#000000;fill-opacity:1;fill-rule:nonzero;stroke:none"
             id="path49649" />
        </g>
      </g>
    </g>
  </g>
</svg>
